<svg xmlns="http://www.w3.org/2000/svg" viewBox="0 0 32 32">
  <defs>
    <linearGradient id="bg" x1="0%" y1="0%" x2="100%" y2="100%">
      <stop offset="0%" style="stop-color:#3B82F6"/>
      <stop offset="100%" style="stop-color:#1D4ED8"/>
    </linearGradient>
  </defs>
  <rect width="32" height="32" rx="6" fill="url(#bg)"/>
  <!-- Simplified chibi face -->
  <ellipse cx="16" cy="15" rx="10" ry="9" fill="#FFE4CC"/>
  <!-- Hair -->
  <path d="M6 12 Q5 6 10 5 Q16 4 22 5 Q27 6 26 12 Q26 9 22 8 Q16 6 10 8 Q6 9 6 12" fill="#4A3728"/>
  <!-- Eyes -->
  <circle cx="12" cy="14" r="3" fill="white"/>
  <circle cx="20" cy="14" r="3" fill="white"/>
  <circle cx="12.5" cy="14.5" r="1.5" fill="#2D1810"/>
  <circle cx="20.5" cy="14.5" r="1.5" fill="#2D1810"/>
  <!-- Cheeks -->
  <circle cx="8" cy="17" r="2" fill="#FFB5B5" opacity="0.5"/>
  <circle cx="24" cy="17" r="2" fill="#FFB5B5" opacity="0.5"/>
  <!-- Smile -->
  <path d="M12 19 Q16 22 20 19" stroke="#D4A574" stroke-width="1.5" fill="none" stroke-linecap="round"/>
</svg>
